<svg width="203" height="61" viewBox="0 0 203 61" fill="none" xmlns="http://www.w3.org/2000/svg">
<path d="M201.103 53.6823C201.103 56.8584 198.531 59.4302 195.35 59.4302H7.09531C3.9161 59.4302 1.33533 56.8576 1.33533 53.6823V7.84287C1.33533 4.66843 3.9161 2.08691 7.09531 2.08691H195.349C198.531 2.08691 201.101 4.66843 201.101 7.84287L201.103 53.6823Z" fill="white"/>
<path d="M195.35 60.769H7.09531C3.18406 60.769 0 57.5913 0 53.683V7.8448C0 3.93322 3.18406 0.751465 7.09531 0.751465H195.349C199.256 0.751465 202.444 3.93322 202.444 7.8448V53.6838C202.447 57.5913 199.258 60.769 195.35 60.769Z" fill="#FF715B"/>
<path d="M201.103 53.6823C201.103 56.8584 198.531 59.4302 195.35 59.4302H7.09531C3.9161 59.4302 1.33533 56.8576 1.33533 53.6823V7.84287C1.33533 4.66843 3.9161 2.08691 7.09531 2.08691H195.349C198.531 2.08691 201.101 4.66843 201.101 7.84287L201.103 53.6823Z" fill="#FF715B"/>
<path d="M45.2045 30.4438C45.1608 25.6064 49.1643 23.2533 49.3473 23.1439C47.08 19.8374 43.5663 19.3854 42.3314 19.3498C39.3797 19.0387 36.5172 21.1164 35.0142 21.1164C33.4805 21.1164 31.1653 19.3798 28.6704 19.4308C25.4596 19.4802 22.4561 21.34 20.8082 24.2277C17.4087 30.1158 19.9442 38.7676 23.2011 43.5273C24.8304 45.8593 26.7342 48.4603 29.2267 48.3687C31.6649 48.2699 32.5759 46.8151 35.5179 46.8151C38.4331 46.8151 39.2882 48.3687 41.8301 48.3096C44.4474 48.2691 46.0945 45.9687 47.6671 43.6164C49.5498 40.9465 50.3061 38.314 50.3361 38.1787C50.2754 38.1584 45.2555 36.2403 45.2045 30.4438ZM40.4033 16.2183C41.7143 14.578 42.6116 12.3464 42.363 10.0815C40.4648 10.1658 38.0914 11.3946 36.7245 12.9992C35.5155 14.4127 34.4352 16.7302 34.7138 18.9099C36.8459 19.0687 39.0348 17.8334 40.4033 16.2183Z" fill="white"/>
<path d="M80.5191 48.0334H77.1115L75.2449 42.1666H68.757L66.9787 48.0334H63.661L70.0899 28.0605H74.0602L80.5191 48.0334ZM74.683 39.7058L72.9954 34.4902C72.8172 33.9573 72.4803 32.7026 71.9888 30.7278H71.9289C71.7305 31.5775 71.4139 32.8322 70.9806 34.4902L69.3214 39.7058H74.683ZM97.0208 40.656C97.0208 43.1054 96.356 45.0413 95.0255 46.4628C93.8343 47.7281 92.3532 48.3599 90.5871 48.3599C88.68 48.3599 87.3091 47.6795 86.4758 46.3171V53.8735H83.2772V38.3653C83.2772 36.8271 83.2367 35.2492 83.159 33.6316H85.9721L86.1503 35.9142H86.2102C87.2767 34.1946 88.8963 33.3344 91.0689 33.3344C92.767 33.3344 94.1849 34.0051 95.3194 35.3488C96.4523 36.6951 97.0208 38.4633 97.0208 40.656ZM93.7622 40.7726C93.7622 39.3705 93.4472 38.2154 92.814 37.3042C92.1224 36.3573 91.1936 35.8834 90.0291 35.8834C89.2396 35.8834 88.5229 36.1475 87.8824 36.6683C87.2402 37.194 86.82 37.8793 86.624 38.729C86.5252 39.1251 86.4758 39.4483 86.4758 39.7034V42.1059C86.4758 43.1516 86.7973 44.0361 87.4395 44.7594C88.0816 45.4795 88.9157 45.8416 89.9425 45.8416C91.1474 45.8416 92.0852 45.375 92.7557 44.4492C93.4262 43.5193 93.7622 42.2946 93.7622 40.7726ZM113.581 40.656C113.581 43.1054 112.916 45.0413 111.586 46.4628C110.393 47.7281 108.913 48.3599 107.146 48.3599C105.238 48.3599 103.868 47.6795 103.034 46.3171V53.8735H99.8356V38.3653C99.8356 36.8271 99.7951 35.2492 99.7174 33.6316H102.531L102.709 35.9142H102.769C103.834 34.1946 105.453 33.3344 107.627 33.3344C109.324 33.3344 110.742 34.0051 111.879 35.3488C113.011 36.6951 113.581 38.4633 113.581 40.656ZM110.321 40.7726C110.321 39.3705 110.004 38.2154 109.371 37.3042C108.679 36.3573 107.754 35.8834 106.589 35.8834C105.8 35.8834 105.083 36.1475 104.439 36.6683C103.797 37.194 103.378 37.8793 103.182 38.729C103.084 39.1251 103.032 39.4483 103.032 39.7034V42.1059C103.032 43.1516 103.354 44.0361 103.994 44.7594C104.636 45.4787 105.47 45.8416 106.499 45.8416C107.706 45.8416 108.644 45.375 109.312 44.4492C109.985 43.5193 110.321 42.2946 110.321 40.7726ZM132.096 42.4315C132.096 44.1317 131.501 45.5143 130.321 46.5811C129.021 47.7459 127.207 48.3299 124.881 48.3299C122.733 48.3299 121.011 47.916 119.711 47.0857L120.45 44.4184C121.853 45.2495 123.394 45.6642 125.072 45.6642C126.278 45.6642 127.216 45.3912 127.885 44.8493C128.555 44.3058 128.895 43.5792 128.895 42.6729C128.895 41.8612 128.614 41.1808 128.064 40.6276C127.51 40.0752 126.595 39.5608 125.309 39.0878C121.813 37.7837 120.063 35.8762 120.063 33.3668C120.063 31.7281 120.681 30.386 121.915 29.337C123.148 28.2897 124.784 27.7656 126.818 27.7656C128.636 27.7656 130.149 28.0823 131.351 28.7141L130.548 31.3223C129.417 30.71 128.14 30.4038 126.711 30.4038C125.583 30.4038 124.698 30.6816 124.065 31.234C123.532 31.7281 123.263 32.33 123.263 33.0444C123.263 33.8325 123.57 34.487 124.183 34.9997C124.714 35.472 125.683 35.9871 127.084 36.5395C128.803 37.2329 130.066 38.0405 130.875 38.9679C131.691 39.8946 132.096 41.052 132.096 42.4315ZM142.699 36.0333H139.173V43.0252C139.173 44.804 139.794 45.6909 141.04 45.6909C141.611 45.6909 142.085 45.6431 142.461 45.5427L142.549 47.9727C141.919 48.2084 141.089 48.3267 140.062 48.3267C138.798 48.3267 137.811 47.9411 137.099 47.1692C136.389 46.398 136.032 45.1053 136.032 43.2868V36.0276H133.931V33.626H136.032V30.9894L139.174 30.0409V33.626H142.7V36.0333H142.699ZM158.576 40.7143C158.576 42.928 157.943 44.7456 156.68 46.1664C155.358 47.6301 153.599 48.3591 151.407 48.3591C149.291 48.3591 147.61 47.6584 146.355 46.2579C145.101 44.8542 144.474 43.0868 144.474 40.954C144.474 38.7225 145.122 36.8943 146.414 35.4728C147.709 34.0496 149.453 33.3384 151.645 33.3384C153.757 33.3384 155.455 34.0407 156.738 35.4428C157.966 36.8028 158.576 38.5589 158.576 40.7143ZM155.26 40.788C155.26 39.4685 154.975 38.3369 154.404 37.39C153.733 36.2463 152.773 35.6745 151.529 35.6745C150.248 35.6745 149.265 36.2463 148.596 37.39C148.023 38.3369 147.737 39.4879 147.737 40.8479C147.737 42.169 148.023 43.303 148.596 44.2475C149.287 45.3912 150.253 45.9631 151.502 45.9631C152.725 45.9631 153.684 45.3791 154.377 44.2191C154.965 43.2488 155.26 42.1099 155.26 40.788ZM168.979 36.4456C168.662 36.3873 168.323 36.3573 167.971 36.3573C166.845 36.3573 165.975 36.7809 165.363 37.633C164.832 38.3831 164.565 39.3316 164.565 40.4769V48.0334H161.366V38.1676C161.366 36.5096 161.335 34.9965 161.273 33.6341H164.059L164.177 36.3897H164.265C164.604 35.4428 165.136 34.679 165.864 34.1071C166.577 33.5928 167.346 33.336 168.176 33.336C168.472 33.336 168.739 33.3571 168.976 33.3943L168.979 36.4456ZM183.285 40.1513C183.285 40.7248 183.248 41.2076 183.168 41.6028H173.571C173.607 43.026 174.072 44.1155 174.963 44.8655C175.772 45.5354 176.818 45.8707 178.102 45.8707C179.523 45.8707 180.819 45.6456 181.985 45.1911L182.486 47.4106C181.124 48.0051 179.515 48.3007 177.659 48.3007C175.426 48.3007 173.674 47.643 172.399 46.3316C171.126 45.0186 170.488 43.2536 170.488 41.0431C170.488 38.8732 171.081 37.0644 172.267 35.6218C173.51 34.082 175.189 33.3117 177.301 33.3117C179.376 33.3117 180.947 34.082 182.014 35.6218C182.861 36.8425 183.285 38.3548 183.285 40.1513ZM180.235 39.3211C180.258 38.371 180.047 37.5529 179.614 36.8611C179.06 35.9693 178.208 35.5254 177.066 35.5254C176.021 35.5254 175.168 35.9588 174.52 36.8295C173.987 37.5213 173.671 38.3531 173.574 39.3178L180.235 39.3211Z" fill="white"/>
<path d="M73.1403 20.9121H71.4641L70.5474 18.0292H67.3593L66.4847 20.9121H64.8538L68.0136 11.0948H69.9644L73.1403 20.9121ZM70.2713 16.8199L69.4412 14.2562C69.3546 13.9938 69.1934 13.3831 68.9465 12.407H68.9165C68.8145 12.829 68.6687 13.4414 68.4501 14.2562L67.6354 16.8199H70.2713ZM81.0414 13.8342L78.3618 20.9121H76.8329L74.24 13.8342H75.9292L77.1382 17.5773C77.3423 18.2034 77.5164 18.8004 77.6468 19.3674H77.6905C77.8079 18.8587 77.9812 18.2609 78.199 17.5773L79.3935 13.8342H81.0414ZM86.7463 20.9121L86.6289 20.0972H86.5851C86.1049 20.7533 85.4061 21.0724 84.5178 21.0724C83.2513 21.0724 82.3484 20.1839 82.3484 18.9891C82.3484 17.2419 83.8626 16.3388 86.4831 16.3388V16.2084C86.4831 15.276 85.9883 14.8095 85.0125 14.8095C84.3129 14.8095 83.7015 14.9852 83.1638 15.3344L82.8439 14.3C83.4999 13.8917 84.3145 13.6876 85.2757 13.6876C87.1245 13.6876 88.0573 14.6629 88.0573 16.6158V19.2224C88.0573 19.9368 88.0873 20.4908 88.1594 20.9121H86.7463ZM86.5268 17.3869C84.7793 17.3869 83.9056 17.8105 83.9056 18.8141C83.9056 19.5569 84.3574 19.9206 84.9826 19.9206C85.7835 19.9206 86.5268 19.3099 86.5268 18.4796V17.3869ZM91.5604 12.6686C91.0365 12.6686 90.6284 12.2604 90.6284 11.7217C90.6284 11.1831 91.0503 10.7894 91.5904 10.7894C92.1289 10.7894 92.5654 11.1823 92.5508 11.7217C92.5516 12.2904 92.1443 12.6686 91.5604 12.6686ZM92.3767 20.9121H90.8041V13.8342H92.3767V20.9121ZM96.7431 20.9121H95.1705V10.5869H96.7431V20.9121ZM103.426 20.9121L103.309 20.0972H103.265C102.785 20.7533 102.086 21.0724 101.198 21.0724C99.9312 21.0724 99.0283 20.1839 99.0283 18.9891C99.0283 17.2419 100.542 16.3388 103.163 16.3388V16.2084C103.163 15.276 102.668 14.8095 101.692 14.8095C100.994 14.8095 100.381 14.9852 99.8437 15.3344L99.523 14.2992C100.179 13.8909 100.994 13.6868 101.955 13.6868C103.804 13.6868 104.736 14.6621 104.736 16.615V19.2216C104.736 19.936 104.768 20.49 104.837 20.9112L103.426 20.9121ZM103.207 17.3869C101.458 17.3869 100.585 17.8105 100.585 18.8141C100.585 19.5569 101.037 19.9206 101.662 19.9206C102.463 19.9206 103.207 19.3099 103.207 18.4796V17.3869ZM111.109 21.0732C110.104 21.0732 109.364 20.6496 108.883 19.8202H108.852L108.762 20.9129H107.422C107.465 20.3459 107.48 19.7035 107.48 19.0053V10.5869H109.054V14.8702H109.084C109.551 14.0837 110.305 13.6909 111.341 13.6909C113.046 13.6909 114.24 15.1481 114.24 17.2735C114.239 19.4702 112.913 21.0732 111.109 21.0732ZM110.789 14.9253C109.884 14.9253 109.056 15.7118 109.056 16.8045V18.043C109.056 19.0183 109.8 19.8202 110.762 19.8202C111.939 19.8202 112.641 18.8595 112.641 17.3302C112.638 15.903 111.909 14.9253 110.789 14.9253ZM118.136 20.9121H116.565V10.5869H118.136V20.9121ZM126.696 17.7514H121.976C122.007 19.092 122.893 19.8477 124.204 19.8477C124.902 19.8477 125.544 19.7303 126.111 19.5132L126.355 20.6059C125.686 20.8967 124.9 21.0425 123.983 21.0425C121.769 21.0425 120.459 19.6436 120.459 17.4752C120.459 15.3052 121.801 13.6738 123.807 13.6738C125.612 13.6738 126.749 15.0144 126.749 17.0386C126.754 17.3148 126.741 17.5627 126.696 17.7514ZM125.254 16.6304C125.254 15.5377 124.7 14.7665 123.695 14.7665C122.791 14.7665 122.08 15.5531 121.976 16.6304H125.254ZM136.226 21.0732C134.159 21.0732 132.819 19.5286 132.819 17.4323C132.819 15.2469 134.187 13.6892 136.345 13.6892C138.38 13.6892 139.752 15.1602 139.752 17.3164C139.752 19.5286 138.339 21.0732 136.226 21.0732ZM136.286 14.8386C135.15 14.8386 134.423 15.9014 134.423 17.3869C134.423 18.8441 135.166 19.9068 136.272 19.9068C137.378 19.9068 138.119 18.7704 138.119 17.3569C138.12 15.9159 137.393 14.8386 136.286 14.8386ZM148.206 20.9121H146.635V16.8474C146.635 15.596 146.154 14.9682 145.208 14.9682C144.276 14.9682 143.633 15.7693 143.633 16.7016V20.9112H142.063V15.8568C142.063 15.2307 142.046 14.56 142.004 13.8326H143.387L143.461 14.9253H143.505C143.925 14.1688 144.786 13.6868 145.746 13.6868C147.23 13.6868 148.206 14.8232 148.206 16.6717V20.9121ZM158.494 15.0144H156.764V18.4513C156.764 19.3261 157.069 19.7627 157.679 19.7627C157.957 19.7627 158.191 19.7327 158.378 19.6889L158.422 20.8837C158.116 21.0012 157.706 21.0595 157.201 21.0595C155.962 21.0595 155.221 20.375 155.221 18.5833V15.0144H154.189V13.835H155.221V12.5374L156.764 12.0708V13.8326H158.494V15.0144ZM166.822 20.9121H165.247V16.8782C165.247 15.6114 164.767 14.9707 163.821 14.9707C163.006 14.9707 162.25 15.5247 162.25 16.6458V20.9129H160.675V10.5869H162.25V14.8386H162.28C162.774 14.0675 163.489 13.6876 164.405 13.6876C165.904 13.6876 166.821 14.8524 166.821 16.7025V20.9121H166.822ZM174.856 17.7514H170.138C170.168 19.092 171.053 19.8477 172.365 19.8477C173.065 19.8477 173.704 19.7303 174.272 19.5132L174.518 20.6059C173.848 20.8967 173.061 21.0425 172.144 21.0425C169.93 21.0425 168.62 19.6436 168.62 17.4752C168.62 15.3052 169.962 13.6738 171.968 13.6738C173.773 13.6738 174.91 15.0144 174.91 17.0386C174.915 17.3148 174.899 17.5627 174.856 17.7514ZM173.414 16.6304C173.414 15.5377 172.862 14.7665 171.857 14.7665C170.952 14.7665 170.241 15.5531 170.138 16.6304H173.414Z" fill="white"/>
</svg>
