<svg width="185" height="172" viewBox="0 0 185 172" fill="none" xmlns="http://www.w3.org/2000/svg">
<path fill-rule="evenodd" clip-rule="evenodd" d="M10.1553 4.52128C10.1553 7.01831 7.96835 9.04255 5.27059 9.04255C2.57283 9.04255 0.385864 7.01831 0.385864 4.52128C0.385864 2.02424 2.57283 0 5.27059 0C7.96835 0 10.1553 2.02424 10.1553 4.52128ZM10.1553 45.2128C10.1553 47.7098 7.96835 49.734 5.27059 49.734C2.57283 49.734 0.385864 47.7098 0.385864 45.2128C0.385864 42.7157 2.57283 40.6915 5.27059 40.6915C7.96835 40.6915 10.1553 42.7157 10.1553 45.2128ZM5.27059 90.4255C7.96835 90.4255 10.1553 88.4013 10.1553 85.9043C10.1553 83.4072 7.96835 81.383 5.27059 81.383C2.57283 81.383 0.385864 83.4072 0.385864 85.9043C0.385864 88.4013 2.57283 90.4255 5.27059 90.4255ZM10.1553 126.596C10.1553 129.093 7.96835 131.117 5.27059 131.117C2.57283 131.117 0.385864 129.093 0.385864 126.596C0.385864 124.099 2.57283 122.074 5.27059 122.074C7.96835 122.074 10.1553 124.099 10.1553 126.596ZM5.27059 171.809C7.96835 171.809 10.1553 169.784 10.1553 167.287C10.1553 164.79 7.96835 162.766 5.27059 162.766C2.57283 162.766 0.385864 164.79 0.385864 167.287C0.385864 169.784 2.57283 171.809 5.27059 171.809ZM53.6294 4.52128C53.6294 7.01831 51.4424 9.04255 48.7446 9.04255C46.0469 9.04255 43.8599 7.01831 43.8599 4.52128C43.8599 2.02424 46.0469 0 48.7446 0C51.4424 0 53.6294 2.02424 53.6294 4.52128ZM48.7446 49.734C51.4424 49.734 53.6294 47.7097 53.6294 45.2127C53.6294 42.7157 51.4424 40.6914 48.7446 40.6914C46.0469 40.6914 43.8599 42.7157 43.8599 45.2127C43.8599 47.7097 46.0469 49.734 48.7446 49.734ZM53.6294 85.9043C53.6294 88.4014 51.4424 90.4256 48.7446 90.4256C46.0469 90.4256 43.8599 88.4014 43.8599 85.9043C43.8599 83.4073 46.0469 81.3831 48.7446 81.3831C51.4424 81.3831 53.6294 83.4073 53.6294 85.9043ZM48.7446 131.117C51.4424 131.117 53.6294 129.093 53.6294 126.596C53.6294 124.099 51.4424 122.074 48.7446 122.074C46.0469 122.074 43.8599 124.099 43.8599 126.596C43.8599 129.093 46.0469 131.117 48.7446 131.117ZM53.6294 167.287C53.6294 169.784 51.4424 171.808 48.7446 171.808C46.0469 171.808 43.8599 169.784 43.8599 167.287C43.8599 164.79 46.0469 162.766 48.7446 162.766C51.4424 162.766 53.6294 164.79 53.6294 167.287ZM92.2186 9.04255C94.9163 9.04255 97.1033 7.01831 97.1033 4.52128C97.1033 2.02424 94.9163 0 92.2186 0C89.5208 0 87.3339 2.02424 87.3339 4.52128C87.3339 7.01831 89.5208 9.04255 92.2186 9.04255ZM97.1033 45.2127C97.1033 47.7097 94.9163 49.734 92.2186 49.734C89.5208 49.734 87.3339 47.7097 87.3339 45.2127C87.3339 42.7157 89.5208 40.6914 92.2186 40.6914C94.9163 40.6914 97.1033 42.7157 97.1033 45.2127ZM92.2186 90.4256C94.9163 90.4256 97.1033 88.4014 97.1033 85.9043C97.1033 83.4073 94.9163 81.3831 92.2186 81.3831C89.5208 81.3831 87.3339 83.4073 87.3339 85.9043C87.3339 88.4014 89.5208 90.4256 92.2186 90.4256ZM97.1033 126.596C97.1033 129.093 94.9163 131.117 92.2186 131.117C89.5208 131.117 87.3339 129.093 87.3339 126.596C87.3339 124.099 89.5208 122.074 92.2186 122.074C94.9163 122.074 97.1033 124.099 97.1033 126.596ZM92.2186 171.808C94.9163 171.808 97.1033 169.784 97.1033 167.287C97.1033 164.79 94.9163 162.766 92.2186 162.766C89.5208 162.766 87.3339 164.79 87.3339 167.287C87.3339 169.784 89.5208 171.808 92.2186 171.808ZM140.577 4.52128C140.577 7.01831 138.39 9.04255 135.693 9.04255C132.995 9.04255 130.808 7.01831 130.808 4.52128C130.808 2.02424 132.995 0 135.693 0C138.39 0 140.577 2.02424 140.577 4.52128ZM135.693 49.734C138.39 49.734 140.577 47.7097 140.577 45.2127C140.577 42.7157 138.39 40.6914 135.693 40.6914C132.995 40.6914 130.808 42.7157 130.808 45.2127C130.808 47.7097 132.995 49.734 135.693 49.734ZM140.577 85.9043C140.577 88.4014 138.39 90.4256 135.693 90.4256C132.995 90.4256 130.808 88.4014 130.808 85.9043C130.808 83.4073 132.995 81.3831 135.693 81.3831C138.39 81.3831 140.577 83.4073 140.577 85.9043ZM135.693 131.117C138.39 131.117 140.577 129.093 140.577 126.596C140.577 124.099 138.39 122.074 135.693 122.074C132.995 122.074 130.808 124.099 130.808 126.596C130.808 129.093 132.995 131.117 135.693 131.117ZM140.577 167.287C140.577 169.784 138.39 171.808 135.693 171.808C132.995 171.808 130.808 169.784 130.808 167.287C130.808 164.79 132.995 162.766 135.693 162.766C138.39 162.766 140.577 164.79 140.577 167.287ZM179.167 9.04255C181.865 9.04255 184.052 7.01831 184.052 4.52128C184.052 2.02424 181.865 0 179.167 0C176.469 0 174.282 2.02424 174.282 4.52128C174.282 7.01831 176.469 9.04255 179.167 9.04255ZM184.052 45.2127C184.052 47.7097 181.865 49.734 179.167 49.734C176.469 49.734 174.282 47.7097 174.282 45.2127C174.282 42.7157 176.469 40.6914 179.167 40.6914C181.865 40.6914 184.052 42.7157 184.052 45.2127ZM179.167 90.4256C181.865 90.4256 184.052 88.4014 184.052 85.9043C184.052 83.4073 181.865 81.3831 179.167 81.3831C176.469 81.3831 174.282 83.4073 174.282 85.9043C174.282 88.4014 176.469 90.4256 179.167 90.4256ZM184.052 126.596C184.052 129.093 181.865 131.117 179.167 131.117C176.469 131.117 174.282 129.093 174.282 126.596C174.282 124.099 176.469 122.074 179.167 122.074C181.865 122.074 184.052 124.099 184.052 126.596ZM179.167 171.808C181.865 171.808 184.052 169.784 184.052 167.287C184.052 164.79 181.865 162.766 179.167 162.766C176.469 162.766 174.282 164.79 174.282 167.287C174.282 169.784 176.469 171.808 179.167 171.808Z" fill="#B4CDFF"/>
</svg>
