<svg width="17" height="16" viewBox="0 0 17 16" fill="none" xmlns="http://www.w3.org/2000/svg">
<path d="M5.05389 6.48493C5.05389 6.80503 4.78731 7.0751 4.44895 7.0751C4.1106 7.0751 3.85427 6.81503 3.85427 6.48493C3.85427 6.16484 4.12085 5.89476 4.4592 5.89476C4.79756 5.89476 5.05389 6.16484 5.05389 6.48493ZM10.283 6.48493C10.283 6.16484 10.0164 5.89476 9.67807 5.89476C9.33972 5.89476 9.07313 6.16484 9.07313 6.48493C9.07313 6.80503 9.33972 7.0751 9.67807 7.0751C10.0164 7.0751 10.283 6.81503 10.283 6.48493ZM12.8873 6.48493C12.8873 6.16484 12.6207 5.89476 12.2824 5.89476C11.944 5.89476 11.6774 6.15484 11.6774 6.48493C11.6774 6.80503 11.944 7.0751 12.2824 7.0751C12.6207 7.0751 12.8873 6.81503 12.8873 6.48493ZM5.05389 9.03568C5.05389 8.71558 4.78731 8.44551 4.44895 8.44551C4.1106 8.44551 3.85427 8.71558 3.85427 9.03568C3.85427 9.35577 4.12085 9.62585 4.4592 9.62585C4.79756 9.62585 5.05389 9.35577 5.05389 9.03568ZM4.44895 10.9963C4.12085 10.9963 3.84401 11.2563 3.84401 11.5864C3.84401 11.9065 4.1106 12.1766 4.44895 12.1766C4.78731 12.1766 5.05389 11.9165 5.05389 11.5864C5.05389 11.2663 4.78731 10.9963 4.44895 10.9963ZM7.66845 6.48493C7.66845 6.16484 7.40187 5.89476 7.06351 5.89476C6.72516 5.89476 6.46883 6.16484 6.46883 6.48493C6.46883 6.80503 6.73541 7.0751 7.07376 7.0751C7.41212 7.0751 7.66845 6.81503 7.66845 6.48493ZM7.66845 9.03568C7.66845 8.71558 7.40187 8.44551 7.06351 8.44551C6.72516 8.44551 6.46883 8.71558 6.46883 9.03568C6.46883 9.35577 6.73541 9.62585 7.07376 9.62585C7.41212 9.62585 7.66845 9.35577 7.66845 9.03568ZM7.06351 10.9963C6.73541 10.9963 6.45857 11.2563 6.45857 11.5864C6.45857 11.9065 6.72516 12.1766 7.06351 12.1766C7.40187 12.1766 7.66845 11.9165 7.66845 11.5864C7.66845 11.2663 7.39161 10.9963 7.06351 10.9963ZM16.0761 11.7965C16.0761 13.7471 14.4458 15.3375 12.4464 15.3375C10.4471 15.3375 8.8168 13.7471 8.8168 11.7965C8.8168 9.84592 10.4471 8.25545 12.4464 8.25545C14.4458 8.25545 16.0761 9.83591 16.0761 11.7965ZM14.8764 11.7965C14.8764 10.4861 13.7896 9.42579 12.4464 9.42579C11.1033 9.42579 10.0164 10.4861 10.0164 11.7965C10.0164 13.1069 11.1033 14.1672 12.4464 14.1672C13.7896 14.1672 14.8764 13.0969 14.8764 11.7965ZM13.3077 11.2063H13.0411V10.5861C13.0411 10.266 12.7745 9.99596 12.4362 9.99596C12.0978 9.99596 11.8312 10.256 11.8312 10.5861V11.7865C11.8312 12.1066 12.0978 12.3767 12.4362 12.3767H13.3077C13.6358 12.3767 13.9126 12.1166 13.9126 11.7865C13.9126 11.4564 13.646 11.2063 13.3077 11.2063ZM13.6768 1.50347H12.8976V0.923303C12.8976 0.603209 12.631 0.33313 12.2926 0.33313C11.9543 0.33313 11.6877 0.593206 11.6877 0.923303V1.51348H8.96035V0.923303C8.96035 0.593206 8.68351 0.33313 8.35541 0.33313C8.02731 0.33313 7.75047 0.593206 7.75047 0.923303V1.51348H5.05389V0.923303C5.05389 0.593206 4.78731 0.33313 4.44895 0.33313C4.1106 0.33313 3.85427 0.593206 3.85427 0.923303V1.51348H3.09553C1.77287 1.50347 0.696289 2.55378 0.696289 3.85416V12.9968C0.696289 14.2872 1.77287 15.3375 3.09553 15.3375H7.68895C8.01706 15.3375 8.29389 15.0774 8.29389 14.7474C8.29389 14.4173 8.02731 14.1572 7.68895 14.1572H3.09553C2.42908 14.1572 1.89591 13.627 1.89591 12.9868V3.85416C1.89591 3.20397 2.43933 2.68382 3.09553 2.68382H3.84401V3.27399C3.84401 3.59409 4.1106 3.86416 4.44895 3.86416C4.78731 3.86416 5.05389 3.60409 5.05389 3.27399V2.67382H7.76073V3.26399C7.76073 3.58408 8.02731 3.85416 8.36566 3.85416C8.69377 3.85416 8.9706 3.59409 8.9706 3.26399V2.67382H11.7082V3.26399C11.7082 3.58408 11.9748 3.85416 12.3131 3.85416C12.6515 3.85416 12.9181 3.59409 12.9181 3.26399V2.67382H13.6973C14.3638 2.67382 14.8969 3.20397 14.8969 3.84416V7.18514C14.8969 7.50523 15.1635 7.77531 15.5019 7.77531C15.8402 7.77531 16.0761 7.51523 16.0761 7.19514V3.85416C16.0761 2.55378 14.9995 1.50347 13.6768 1.50347Z" fill="#FF715B"/>
</svg>
