<svg width="15" height="9" viewBox="0 0 15 9" fill="none" xmlns="http://www.w3.org/2000/svg">
<path d="M13.9312 0.556161C13.7888 0.417301 13.5977 0.339936 13.3944 0.339936C13.191 0.339936 12.9999 0.417301 12.8576 0.556161L7.66841 5.61861L2.47318 0.55021C2.33084 0.411349 2.13971 0.333984 1.93637 0.333984C1.73303 0.333984 1.5419 0.411349 1.39956 0.55021L0.944089 0.994563C0.647218 1.28419 0.647218 1.75433 0.944089 2.04197L7.12957 8.09826C7.27191 8.23712 7.46305 8.3363 7.66841 8.3363H7.67045C7.87378 8.3363 8.06492 8.23712 8.20726 8.09826L14.3866 2.05784C14.529 1.91898 14.6083 1.72655 14.6083 1.52818C14.6083 1.32981 14.529 1.14136 14.3866 1.00051L13.9312 0.556161Z" fill="#FF715B"/>
</svg>
