<svg width="204" height="61" viewBox="0 0 204 61" fill="none" xmlns="http://www.w3.org/2000/svg">
<path d="M195.644 60.769H7.52454C3.31083 60.769 0 57.4681 0 53.2671V8.25346C0 4.05237 3.31083 0.751465 7.52454 0.751465H195.643C199.857 0.751465 203.167 4.05237 203.167 8.25346V53.2671C203.168 57.4681 199.857 60.769 195.644 60.769Z" fill="#2C2C2C"/>
<path d="M195.644 1.95143C199.105 1.95143 201.965 4.80266 201.965 8.25346V53.2671C201.965 56.7179 199.105 59.5691 195.644 59.5691H7.52454C4.06337 59.5691 1.20357 56.7179 1.20357 53.2671V8.25346C1.20357 4.80266 4.06337 1.95143 7.52454 1.95143H195.644ZM195.644 0.751465H7.52454C3.31083 0.751465 0 4.20227 0 8.25346V53.2671C0 57.4681 3.31083 60.769 7.52454 60.769H195.643C199.857 60.769 203.167 57.4681 203.167 53.2671V8.25346C203.168 4.20227 199.857 0.751465 195.644 0.751465Z" fill="#2C2C2C"/>
<path d="M71.3348 16.0559C71.3348 17.2559 71.0341 18.3068 70.2816 19.057C69.3787 19.9572 68.3255 20.4077 66.9707 20.4077C65.616 20.4077 64.5628 19.9572 63.6599 19.057C62.757 18.1569 62.3052 17.1068 62.3052 15.7561C62.3052 14.4054 62.757 13.3553 63.6599 12.4552C64.5628 11.555 65.616 11.1045 66.9707 11.1045C67.5729 11.1045 68.1743 11.2544 68.7765 11.555C69.3787 11.8548 69.8297 12.1554 70.1312 12.6051L69.3787 13.3554C68.7765 12.6051 68.024 12.3053 66.9707 12.3053C66.0679 12.3053 65.165 12.6051 64.5628 13.3554C63.8102 13.9557 63.5096 14.8559 63.5096 15.906C63.5096 16.9561 63.8102 17.8563 64.5628 18.4566C65.3153 19.057 66.0679 19.5067 66.9707 19.5067C68.024 19.5067 68.7765 19.2069 69.529 18.4566C69.9809 18.0062 70.2816 17.4066 70.2816 16.6563H66.9707V15.4563H71.3348V16.0559ZM78.2571 12.3045H74.1938V15.1557H77.9565V16.2058H74.1938V19.057H78.2571V20.257H72.9902V11.2544H78.2571V12.3045ZM83.2234 20.257H82.0198V12.3045H79.4615V11.2544H85.7825V12.3045H83.2242V20.257H83.2234ZM90.1465 20.257V11.2544H91.3501V20.257H90.1465ZM96.4675 20.257H95.264V12.3045H92.7057V11.2544H98.8763V12.3045H96.318V20.257H96.4675ZM110.764 19.057C109.861 19.9572 108.808 20.4077 107.453 20.4077C106.099 20.4077 105.045 19.9572 104.142 19.057C103.24 18.1569 102.788 17.1068 102.788 15.7561C102.788 14.4054 103.24 13.3553 104.142 12.4552C105.045 11.555 106.099 11.1045 107.453 11.1045C108.808 11.1045 109.861 11.555 110.764 12.4552C111.667 13.3553 112.119 14.4054 112.119 15.7561C112.119 17.1068 111.667 18.156 110.764 19.057ZM105.045 18.3068C105.647 18.9071 106.55 19.3568 107.453 19.3568C108.356 19.3568 109.259 19.057 109.861 18.3068C110.463 17.7064 110.914 16.8062 110.914 15.7561C110.914 14.706 110.614 13.8058 109.861 13.2055C109.259 12.6051 108.356 12.1554 107.453 12.1554C106.55 12.1554 105.647 12.4552 105.045 13.2055C104.443 13.8058 103.992 14.706 103.992 15.7561C103.992 16.8062 104.293 17.7064 105.045 18.3068ZM113.774 20.257V11.2544H115.129L119.493 18.3068V11.2544H120.697V20.257H119.493L114.827 12.9049V20.257H113.774Z" fill="white" stroke="white" stroke-width="0.2" stroke-miterlimit="10"/>
<path d="M102.487 33.4606C98.8755 33.4606 96.0157 36.1611 96.0157 39.9125C96.0157 43.5131 98.8755 46.3643 102.487 46.3643C106.099 46.3643 108.958 43.6638 108.958 39.9125C108.958 36.012 106.099 33.4606 102.487 33.4606ZM102.487 43.6638C100.531 43.6638 98.8755 42.0134 98.8755 39.7626C98.8755 37.5118 100.531 35.8613 102.487 35.8613C104.443 35.8613 106.099 37.3619 106.099 39.7626C106.099 42.0134 104.444 43.6638 102.487 43.6638ZM88.4912 33.4606C84.8797 33.4606 82.0199 36.1611 82.0199 39.9125C82.0199 43.5131 84.8797 46.3643 88.4912 46.3643C92.1027 46.3643 94.9625 43.6638 94.9625 39.9125C94.9625 36.012 92.1027 33.4606 88.4912 33.4606ZM88.4912 43.6638C86.5351 43.6638 84.8797 42.0134 84.8797 39.7626C84.8797 37.5118 86.5351 35.8613 88.4912 35.8613C90.4473 35.8613 92.1027 37.3619 92.1027 39.7626C92.1027 42.0134 90.4473 43.6638 88.4912 43.6638ZM71.7859 35.4116V38.1121H78.2572C78.1068 39.6127 77.5046 40.8126 76.7521 41.5629C75.8492 42.4631 74.3442 43.5131 71.7859 43.5131C67.7225 43.5131 64.7124 40.3621 64.7124 36.311C64.7124 32.2598 67.8737 29.1097 71.7859 29.1097C73.8931 29.1097 75.5485 30.0098 76.7521 31.0599L78.709 29.1097C77.0536 27.6091 74.9464 26.4092 71.937 26.4092C66.5189 26.4092 61.8542 30.9108 61.8542 36.3118C61.8542 41.7128 66.5197 46.2144 71.937 46.2144C74.9472 46.2144 77.0536 45.3143 78.8602 43.3632C80.6659 41.5629 81.2681 39.0123 81.2681 37.0613C81.2681 36.4609 81.2681 35.8613 81.1178 35.4108L71.7859 35.4116ZM140.111 37.5118C139.508 36.0112 138.003 33.4606 134.692 33.4606C131.382 33.4606 128.673 36.0112 128.673 39.9125C128.673 43.5131 131.382 46.3643 134.994 46.3643C137.854 46.3643 139.66 44.564 140.261 43.5131L138.154 42.0134C137.402 43.0634 136.499 43.8137 134.994 43.8137C133.489 43.8137 132.586 43.2133 131.833 41.8635L140.412 38.2628L140.111 37.5118ZM131.382 39.6127C131.382 37.212 133.339 35.8613 134.693 35.8613C135.746 35.8613 136.801 36.4617 137.101 37.212L131.382 39.6127ZM124.309 45.7647H127.169V27.0087H124.309V45.7647ZM119.794 34.8113C119.041 34.061 117.838 33.3107 116.333 33.3107C113.172 33.3107 110.162 36.1619 110.162 39.7626C110.162 43.3632 113.022 46.0645 116.333 46.0645C117.838 46.0645 119.041 45.3143 119.643 44.564H119.794V45.4641C119.794 47.8649 118.439 49.2155 116.333 49.2155C114.677 49.2155 113.473 48.0156 113.172 46.9647L110.764 48.0148C111.517 49.6652 113.322 51.7661 116.483 51.7661C119.794 51.7661 122.502 49.8159 122.502 45.1644V33.7612H119.794V34.8113ZM116.483 43.6638C114.527 43.6638 112.871 42.0134 112.871 39.7626C112.871 37.5118 114.527 35.8613 116.483 35.8613C118.439 35.8613 119.944 37.5118 119.944 39.7626C119.944 42.0134 118.44 43.6638 116.483 43.6638ZM153.204 27.0087H146.432V45.7639H149.292V38.7117H153.205C156.366 38.7117 159.376 36.4609 159.376 32.8602C159.376 29.2596 156.364 27.0087 153.204 27.0087ZM153.355 36.012H149.291V29.5602H153.355C155.462 29.5602 156.666 31.3605 156.666 32.7111C156.515 34.3608 155.311 36.012 153.355 36.012ZM170.661 33.3107C168.554 33.3107 166.448 34.2109 165.695 36.1619L168.253 37.212C168.856 36.1619 169.759 35.8613 170.812 35.8613C172.317 35.8613 173.672 36.7615 173.822 38.262V38.4119C173.37 38.1121 172.166 37.6616 170.962 37.6616C168.253 37.6616 165.544 39.1622 165.544 41.8627C165.544 44.4133 167.802 46.0637 170.21 46.0637C172.166 46.0637 173.069 45.1636 173.821 44.2634H173.971V45.7639H176.68V38.5618C176.38 35.2617 173.822 33.3107 170.661 33.3107ZM170.361 43.6638C169.458 43.6638 168.103 43.2133 168.103 42.0134C168.103 40.5128 169.758 40.0632 171.113 40.0632C172.317 40.0632 172.919 40.3629 173.672 40.6635C173.37 42.4631 171.865 43.6638 170.361 43.6638ZM186.162 33.7612L183.002 41.8635H182.851L179.541 33.7612H176.531L181.497 45.1644L178.637 51.4663H181.497L189.172 33.7612H186.162ZM160.879 45.7647H163.739V27.0087H160.879V45.7647Z" fill="white"/>
<path d="M15.6513 12.0049C15.1994 12.4554 15.0491 13.2048 15.0491 14.1058V47.2653C15.0491 48.1655 15.3498 48.9157 15.8016 49.3662L15.952 49.5161L34.6134 30.9108V30.611L15.6513 12.0049Z" fill="url(#paint0_linear)"/>
<path d="M40.6336 37.2124L34.463 31.0603V30.6098L40.6336 24.4585L40.784 24.6084L48.1582 28.8095C50.2655 30.0094 50.2655 31.9605 48.1582 33.1604L40.6336 37.2124Z" fill="url(#paint1_linear)"/>
<path d="M40.784 37.0621L34.463 30.7603L15.6512 49.5151C16.4038 50.2654 17.457 50.2654 18.8117 49.665L40.784 37.0621Z" fill="url(#paint2_linear)"/>
<path d="M40.784 24.4578L18.8117 12.0046C17.457 11.2543 16.4038 11.4042 15.6512 12.1545L34.463 30.7598L40.784 24.4578Z" fill="url(#paint3_linear)"/>
<path opacity="0.2" d="M40.6336 36.9121L18.8117 49.2156C17.6082 49.9659 16.5541 49.816 15.8016 49.2156L15.6512 49.3655L15.8016 49.5154C16.5541 50.1158 17.6073 50.2657 18.8117 49.5154L40.6336 36.9121Z" fill="black"/>
<path opacity="0.12" d="M15.6513 49.2158C15.1994 48.7653 15.0491 48.0159 15.0491 47.1149V47.2648C15.0491 48.165 15.3498 48.9152 15.8016 49.3657V49.2158H15.6513ZM48.1582 32.7105L40.6337 36.9124L40.784 37.0623L48.1582 32.8612C49.2114 32.2608 49.6633 31.5105 49.6633 30.7603C49.6633 31.5105 49.0611 32.1109 48.1582 32.7105Z" fill="black"/>
<path opacity="0.25" d="M18.8118 12.1551L48.1582 28.81C49.0611 29.4104 49.6633 30.01 49.6633 30.7603C49.6633 30.01 49.2114 29.2597 48.1582 28.6593L18.8118 12.0052C16.7045 10.8053 15.0491 11.7054 15.0491 14.1061V14.256C15.0499 12.0052 16.7053 10.9551 18.8118 12.1551Z" fill="white"/>
<defs>
<linearGradient id="paint0_linear" x1="32.7992" y1="13.8124" x2="7.61772" y2="39.0684" gradientUnits="userSpaceOnUse">
<stop stop-color="#00A0FF"/>
<stop offset="0.007" stop-color="#00A1FF"/>
<stop offset="0.26" stop-color="#00BEFF"/>
<stop offset="0.512" stop-color="#00D2FF"/>
<stop offset="0.76" stop-color="#00DFFF"/>
<stop offset="1" stop-color="#00E3FF"/>
</linearGradient>
<linearGradient id="paint1_linear" x1="50.9169" y1="30.8347" x2="14.5016" y2="30.8347" gradientUnits="userSpaceOnUse">
<stop stop-color="#FFE000"/>
<stop offset="0.409" stop-color="#FFBD00"/>
<stop offset="0.775" stop-color="#FFA500"/>
<stop offset="1" stop-color="#FF9C00"/>
</linearGradient>
<linearGradient id="paint2_linear" x1="37.3445" y1="34.1871" x2="3.19852" y2="68.4366" gradientUnits="userSpaceOnUse">
<stop stop-color="#FF3A44"/>
<stop offset="1" stop-color="#C31162"/>
</linearGradient>
<linearGradient id="paint3_linear" x1="10.9266" y1="1.06783" x2="26.1753" y2="16.3624" gradientUnits="userSpaceOnUse">
<stop stop-color="#32A071"/>
<stop offset="0.069" stop-color="#2DA771"/>
<stop offset="0.476" stop-color="#15CF74"/>
<stop offset="0.801" stop-color="#06E775"/>
<stop offset="1" stop-color="#00F076"/>
</linearGradient>
</defs>
</svg>
