<svg width="28" height="26" viewBox="0 0 28 26" fill="none" xmlns="http://www.w3.org/2000/svg">
<path d="M14.1234 0.868896C6.6524 0.868896 0.564453 6.34589 0.564453 13.0671V15.5067V20.386V21.6058C0.564453 23.6185 2.39491 25.2653 4.63213 25.2653H5.98802C8.22524 25.2653 10.0557 23.6185 10.0557 21.6058V17.9464C10.0557 15.9337 8.22524 14.2869 5.98802 14.2869H3.27624V13.0671C3.27624 7.68769 8.14389 3.30854 14.1234 3.30854C20.1028 3.30854 24.9705 7.68769 24.9705 13.0671V14.2869H22.2587C20.0215 14.2869 18.191 15.9337 18.191 17.9464V21.6058C18.191 23.6185 20.0215 25.2653 22.2587 25.2653H23.6146C25.8518 25.2653 27.6823 23.6185 27.6823 21.6058V20.386V15.5067V13.0671C27.6823 6.34589 21.5943 0.868896 14.1234 0.868896ZM5.98802 16.7266C6.73376 16.7266 7.34391 17.2755 7.34391 17.9464V21.6058C7.34391 22.2767 6.73376 22.8257 5.98802 22.8257H4.63213C3.88639 22.8257 3.27624 22.2767 3.27624 21.6058V20.386V16.7266H5.98802ZM24.9705 21.6058C24.9705 22.2767 24.3603 22.8257 23.6146 22.8257H22.2587C21.513 22.8257 20.9028 22.2767 20.9028 21.6058V17.9464C20.9028 17.2755 21.513 16.7266 22.2587 16.7266H24.9705V20.386V21.6058Z" fill="#FFC01E"/>
</svg>
