<svg width="20" height="25" viewBox="0 0 20 25" fill="none" xmlns="http://www.w3.org/2000/svg">
<path fill-rule="evenodd" clip-rule="evenodd" d="M9.45 24.7787C9.61 24.8887 9.81 24.9487 10 24.9487C10.19 24.9487 10.39 24.8887 10.55 24.7787C10.94 24.5286 20 18.3969 20 10.9447C20 5.43317 15.51 0.941895 10 0.941895C4.49 0.941895 0 5.43317 0 10.9447C0 18.3969 9.06 24.5286 9.45 24.7787ZM2 10.9447C2 6.53349 5.59 2.94246 10 2.94246C14.41 2.94246 18 6.53349 18 10.9447C18 16.3563 11.9 21.3077 10 22.7181C8.1 21.3077 2 16.3563 2 10.9447ZM6 10.9446C6 13.1553 7.79 14.9458 10 14.9458C12.21 14.9458 14 13.1553 14 10.9446C14 8.73391 12.21 6.94336 10 6.94336C7.79 6.94336 6 8.73391 6 10.9446ZM8 10.9446C8 9.84424 8.9 8.94397 10 8.94397C11.1 8.94397 12 9.84424 12 10.9446C12 12.0449 11.1 12.9452 10 12.9452C8.9 12.9452 8 12.0449 8 10.9446Z" fill="#FF715B"/>
</svg>
