<svg width="22" height="19" viewBox="0 0 22 19" fill="none" xmlns="http://www.w3.org/2000/svg">
<path d="M19 0.929688H3C1.35 0.929688 0 2.28009 0 3.93058V15.9342C0 17.5847 1.35 18.9351 3 18.9351H19C20.65 18.9351 22 17.5847 22 15.9342V3.93058C22 2.28009 20.65 0.929688 19 0.929688ZM3 2.93028H19C19.39 2.93028 19.72 3.16035 19.89 3.49045L11 9.71231L2.11 3.49045C2.28 3.16035 2.61 2.93028 3 2.93028ZM19 16.9345H3C2.45 16.9345 2 16.4843 2 15.9342V5.85116L10.43 11.7529C10.6 11.873 10.8 11.933 11 11.933C11.2 11.933 11.4 11.873 11.57 11.7529L20 5.85116V15.9342C20 16.4843 19.55 16.9345 19 16.9345Z" fill="#FF715B"/>
</svg>
