<svg width="23" height="24" viewBox="0 0 23 24" fill="none" xmlns="http://www.w3.org/2000/svg">
<path d="M18.8651 23.8535C18.7851 23.8535 18.6951 23.8535 18.6151 23.8435C15.3851 23.4934 12.2451 22.3731 9.53508 20.6126C7.01508 19.0121 4.83508 16.8315 3.23508 14.3108C1.47508 11.59 0.355079 8.43907 0.0150791 5.20814C-0.0649209 4.3879 0.175079 3.60768 0.695079 2.9975C1.20508 2.37732 1.93508 2.00722 2.72508 1.92719C2.81508 1.91719 2.90508 1.91719 2.99508 1.91719H5.99508C6.00508 1.91719 6.01508 1.91719 6.02508 1.91719C7.50508 1.91719 8.77508 3.01751 8.98508 4.49793C9.10508 5.38819 9.32508 6.25844 9.63508 7.09868C10.0451 8.189 9.78508 9.42936 8.95508 10.2596L8.23508 10.9798C9.41508 12.8203 10.9751 14.3908 12.8251 15.5711L13.5451 14.8509C14.3751 14.0307 15.6251 13.7606 16.7151 14.1707C17.5451 14.4808 18.4251 14.7009 19.3051 14.8109C20.8151 15.021 21.9251 16.3313 21.8951 17.8418V20.8326C21.8951 21.6329 21.5851 22.3831 21.0251 22.9533C20.4651 23.5234 19.7051 23.8335 18.9051 23.8435C18.8851 23.8535 18.8751 23.8535 18.8651 23.8535ZM6.01508 3.91777C6.00508 3.91777 6.00508 3.91777 6.01508 3.91777H2.99508C2.63508 3.94777 2.39508 4.06781 2.22508 4.27787C2.05508 4.47793 1.97508 4.738 1.99508 5.00808C2.30508 7.91892 3.31508 10.7597 4.91508 13.2305C6.36508 15.5111 8.33508 17.4817 10.6151 18.9321C13.0751 20.5326 15.9151 21.5328 18.8151 21.8529C19.1651 21.893 19.4051 21.7529 19.5951 21.5629C19.7851 21.3728 19.8851 21.1227 19.8851 20.8526V17.8518C19.8851 17.8418 19.8851 17.8318 19.8851 17.8218C19.8951 17.3116 19.5251 16.8815 19.0251 16.8115C18.0051 16.6814 16.9851 16.4214 16.0051 16.0613C15.6351 15.9212 15.2251 16.0113 14.9451 16.2813L13.6751 17.5517C13.3551 17.8718 12.8651 17.9318 12.4751 17.7117C9.81508 16.2013 7.61508 13.9907 6.10508 11.3399C5.88508 10.9498 5.94508 10.4597 6.26508 10.1396L7.53508 8.86919C7.80508 8.57911 7.89508 8.16899 7.75508 7.79889C7.38508 6.8186 7.13508 5.79831 6.99508 4.76801C6.93508 4.28787 6.50508 3.91777 6.01508 3.91777ZM17.8851 10.8698C17.4151 10.8698 16.9951 10.5397 16.9051 10.0595C16.5951 8.44907 15.3551 7.20872 13.7451 6.89863C13.2051 6.78859 12.8451 6.26844 12.9551 5.72829C13.0651 5.18813 13.5851 4.82803 14.1251 4.93806C16.5351 5.4082 18.3951 7.26873 18.8651 9.67943C18.9751 10.2196 18.6151 10.7497 18.0751 10.8498C18.0051 10.8598 17.9451 10.8698 17.8851 10.8698ZM21.8851 10.8598C21.3851 10.8598 20.9451 10.4797 20.8951 9.96951C20.4751 6.22843 17.5651 3.3276 13.8251 2.90748C13.2751 2.84746 12.8851 2.34731 12.9451 1.80716C13.0051 1.257 13.5151 0.856884 14.0451 0.926904C18.7251 1.44705 22.3551 5.0781 22.8751 9.74945C22.9351 10.2996 22.5451 10.7897 21.9951 10.8598C21.9551 10.8598 21.9151 10.8598 21.8851 10.8598Z" fill="#FF715B"/>
</svg>
