<?xml version="1.0" encoding="UTF-8"?>
<svg xmlns="http://www.w3.org/2000/svg" xmlns:xlink="http://www.w3.org/1999/xlink" width="24pt" height="24pt" viewBox="0 0 24 24" version="1.1">
<g id="surface1">
<path style=" stroke:none;fill-rule:nonzero;fill:rgb(0%,0%,0%);fill-opacity:1;" d="M 12 0 C 8.511719 0 5.671875 2.839844 5.671875 6.328125 C 5.671875 9.816406 8.511719 12.65625 12 12.65625 C 15.488281 12.65625 18.328125 9.816406 18.328125 6.328125 C 18.328125 2.839844 15.488281 0 12 0 Z M 12 11.25 C 9.285156 11.25 7.078125 9.042969 7.078125 6.328125 C 7.078125 3.613281 9.285156 1.40625 12 1.40625 C 14.714844 1.40625 16.921875 3.613281 16.921875 6.328125 C 16.921875 9.042969 14.714844 11.25 12 11.25 Z M 12 11.25 "/>
<path style=" stroke:none;fill-rule:nonzero;fill:rgb(0%,0%,0%);fill-opacity:1;" d="M 13.960938 14.109375 L 10.039062 14.109375 C 6.796875 14.109375 3.59375 15.605469 1.453125 18.816406 L 1.453125 24 L 22.546875 24 L 22.546875 18.816406 C 20.410156 15.613281 17.207031 14.109375 13.960938 14.109375 Z M 21.140625 22.59375 L 2.859375 22.59375 L 2.859375 19.25 C 4.5 16.90625 7.167969 15.515625 10.039062 15.515625 L 13.960938 15.515625 C 16.832031 15.515625 19.5 16.90625 21.140625 19.25 Z M 21.140625 22.59375 "/>
</g>
</svg>
