<svg width="28" height="25" viewBox="0 0 28 25" fill="none" xmlns="http://www.w3.org/2000/svg">
<path d="M14.1751 0.249512C6.75548 0.249512 0.649048 5.75647 0.649048 12.4477C0.649048 19.139 6.75548 24.6459 14.1751 24.6459C21.5948 24.6459 27.7669 19.1982 27.7669 12.4477C27.7669 5.69725 21.6604 0.249512 14.1751 0.249512ZM25.2061 11.3818H20.2816C20.0189 8.30269 18.9027 5.40118 16.9985 2.85495C21.3978 3.8616 24.6808 7.23683 25.2061 11.3818ZM10.5638 13.5728H17.7865C17.4582 16.5927 16.2106 19.435 14.1751 21.8628C12.1397 19.435 10.8921 16.5927 10.5638 13.5728ZM10.5638 11.3818C10.8921 8.36191 12.1397 5.51961 14.1751 3.09181C16.2106 5.51961 17.5238 8.36191 17.7865 11.3818H10.5638ZM11.4174 2.79574C9.51323 5.34196 8.397 8.24348 8.13436 11.3226H3.20981C3.66944 7.23683 7.01813 3.8616 11.4174 2.79574ZM3.20981 13.5728H8.13436C8.397 16.6519 9.51323 19.5535 11.4174 22.0997C7.01813 21.093 3.66944 17.7178 3.20981 13.5728ZM16.9985 22.1589C18.9027 19.6127 20.0189 16.7112 20.2816 13.632H25.2061C24.6808 17.7178 21.3978 21.093 16.9985 22.1589Z" fill="#65CE54"/>
</svg>
